<svg xmlns="http://www.w3.org/2000/svg" viewBox="0 0 1200 660" width="1200" height="660">
  <style>
    text { font-family: -apple-system, BlinkMacSystemFont, "Segoe UI", Roboto, sans-serif; }
  </style>
  <defs>
    <marker id="arr" markerWidth="10" markerHeight="7" refX="9" refY="3.5" orient="auto">
      <polygon points="0 0, 10 3.5, 0 7" fill="#71717a"/>
    </marker>
    <marker id="arr-g" markerWidth="10" markerHeight="7" refX="9" refY="3.5" orient="auto">
      <polygon points="0 0, 10 3.5, 0 7" fill="#10a37f"/>
    </marker>
  </defs>
  <rect width="1200" height="660" fill="#ffffff"/>
  <text x="600" y="36" text-anchor="middle" fill="#0d0d0d" font-size="22" font-weight="600">我的职业：产品经理</text>
  <text x="600" y="56" text-anchor="middle" fill="#6e6e80" font-size="13">AI 时代的产品经理工作流</text>
  <text x="195" y="79" text-anchor="middle" fill="#c4c4c4" font-size="11" font-weight="600">01</text>
  <text x="465" y="79" text-anchor="middle" fill="#c4c4c4" font-size="11" font-weight="600">02</text>
  <text x="735" y="79" text-anchor="middle" fill="#c4c4c4" font-size="11" font-weight="600">03</text>
  <text x="1005" y="79" text-anchor="middle" fill="#c4c4c4" font-size="11" font-weight="600">04</text>
  <rect x="90" y="85" width="210" height="75" rx="8" fill="#ffffff" stroke="#e5e5e5" stroke-width="1.5"/>
  <rect x="90" y="85" width="4" height="75" rx="2" fill="#10a37f"/>
  <text x="195" y="115" text-anchor="middle" fill="#0d0d0d" font-size="16" font-weight="600">L.S 需求采集</text>
  <text x="195" y="135" text-anchor="middle" fill="#6e6e80" font-size="12">洞察 · 调研 · 信息搜集</text>
  <rect x="360" y="85" width="210" height="75" rx="8" fill="#ffffff" stroke="#e5e5e5" stroke-width="1.5"/>
  <rect x="360" y="85" width="4" height="75" rx="2" fill="#10a37f"/>
  <text x="465" y="115" text-anchor="middle" fill="#0d0d0d" font-size="16" font-weight="600">HTML 原型</text>
  <text x="465" y="135" text-anchor="middle" fill="#6e6e80" font-size="12">需求交互原型</text>
  <rect x="630" y="85" width="210" height="75" rx="8" fill="#ffffff" stroke="#e5e5e5" stroke-width="1.5"/>
  <rect x="630" y="85" width="4" height="75" rx="2" fill="#10a37f"/>
  <text x="735" y="115" text-anchor="middle" fill="#0d0d0d" font-size="16" font-weight="600">Figma 设计</text>
  <text x="735" y="135" text-anchor="middle" fill="#6e6e80" font-size="12">视觉 &amp; UI/UE</text>
  <rect x="900" y="85" width="210" height="75" rx="8" fill="#ffffff" stroke="#e5e5e5" stroke-width="1.5"/>
  <rect x="900" y="85" width="4" height="75" rx="2" fill="#10a37f"/>
  <text x="1005" y="115" text-anchor="middle" fill="#0d0d0d" font-size="16" font-weight="600">Coding</text>
  <text x="1005" y="135" text-anchor="middle" fill="#6e6e80" font-size="12">编码实现</text>
  <line x1="300" y1="122" x2="360" y2="122" stroke="#10a37f" stroke-width="1.5" marker-end="url(#arr-g)"/>
  <rect x="286" y="113" width="88" height="16" rx="3" fill="#ffffff"/>
  <text x="330" y="125" text-anchor="middle" fill="#6e6e80" font-size="10">material2proto</text>
  <line x1="570" y1="122" x2="630" y2="122" stroke="#10a37f" stroke-width="1.5" marker-end="url(#arr-g)"/>
  <rect x="559" y="113" width="82" height="16" rx="3" fill="#ffffff"/>
  <text x="600" y="125" text-anchor="middle" fill="#6e6e80" font-size="10">Web to Figma</text>
  <line x1="840" y1="122" x2="900" y2="122" stroke="#10a37f" stroke-width="1.5" marker-end="url(#arr-g)"/>
  <rect x="838" y="113" width="64" height="16" rx="3" fill="#ffffff"/>
  <text x="870" y="125" text-anchor="middle" fill="#6e6e80" font-size="10">figma link</text>
  <line x1="195" y1="160" x2="195" y2="195" stroke="#71717a" stroke-width="1.5" marker-end="url(#arr)"/>
  <line x1="465" y1="160" x2="465" y2="195" stroke="#71717a" stroke-width="1.5" marker-end="url(#arr)"/>
  <line x1="735" y1="160" x2="735" y2="195" stroke="#71717a" stroke-width="1.5" marker-end="url(#arr)"/>
  <line x1="1005" y1="160" x2="1005" y2="195" stroke="#71717a" stroke-width="1.5" marker-end="url(#arr)"/>
  <rect x="100" y="195" width="190" height="46" rx="23" fill="#ffffff" stroke="#e5e5e5" stroke-width="1.5"/>
  <text x="195" y="223" text-anchor="middle" fill="#0d0d0d" font-size="13" font-weight="500">Cursor / Claude Code</text>
  <rect x="370" y="195" width="190" height="46" rx="23" fill="#ffffff" stroke="#e5e5e5" stroke-width="1.5"/>
  <text x="465" y="223" text-anchor="middle" fill="#0d0d0d" font-size="13" font-weight="500">Chrome 浏览器</text>
  <rect x="640" y="195" width="190" height="46" rx="23" fill="#ffffff" stroke="#e5e5e5" stroke-width="1.5"/>
  <text x="735" y="223" text-anchor="middle" fill="#0d0d0d" font-size="13" font-weight="500">Cursor / Claude Code</text>
  <rect x="910" y="195" width="190" height="46" rx="23" fill="#ffffff" stroke="#e5e5e5" stroke-width="1.5"/>
  <text x="1005" y="223" text-anchor="middle" fill="#0d0d0d" font-size="13" font-weight="500">Cursor / Claude Code</text>
  <rect x="95" y="268" width="200" height="94" rx="6" fill="#fafafa" stroke="#e5e5e5" stroke-width="1"/>
  <text x="107" y="286" fill="#0d0d0d" font-size="11" font-weight="600">工具 &amp; 资源</text>
  <circle cx="109" cy="301" r="2.5" fill="#10a37f"/>
  <text x="119" y="304" fill="#6e6e80" font-size="11">Perplexity / Deep Research</text>
  <circle cx="109" cy="319" r="2.5" fill="#10a37f"/>
  <text x="119" y="322" fill="#6e6e80" font-size="11">直觉 / 经验 / Prompt</text>
  <circle cx="109" cy="337" r="2.5" fill="#10a37f"/>
  <text x="119" y="340" fill="#6e6e80" font-size="11">Superconductor Skill</text>
  <rect x="365" y="268" width="200" height="130" rx="6" fill="#fafafa" stroke="#e5e5e5" stroke-width="1"/>
  <text x="377" y="286" fill="#0d0d0d" font-size="11" font-weight="600">设计资源</text>
  <circle cx="379" cy="301" r="2.5" fill="#10a37f"/>
  <text x="389" y="304" fill="#6e6e80" font-size="11">Design.md</text>
  <circle cx="379" cy="319" r="2.5" fill="#10a37f"/>
  <text x="389" y="322" fill="#6e6e80" font-size="11">awesome-design.md</text>
  <circle cx="379" cy="337" r="2.5" fill="#10a37f"/>
  <text x="389" y="340" fill="#6e6e80" font-size="11">awesome-design-system</text>
  <circle cx="379" cy="355" r="2.5" fill="#10a37f"/>
  <text x="389" y="358" fill="#6e6e80" font-size="11">Dribbscale / design.dev</text>
  <circle cx="379" cy="373" r="2.5" fill="#10a37f"/>
  <text x="389" y="376" fill="#6e6e80" font-size="11">free-tools/design.md</text>
  <rect x="635" y="268" width="200" height="76" rx="6" fill="#fafafa" stroke="#e5e5e5" stroke-width="1"/>
  <text x="647" y="286" fill="#0d0d0d" font-size="11" font-weight="600">工具 &amp; 资源</text>
  <circle cx="649" cy="301" r="2.5" fill="#10a37f"/>
  <text x="659" y="304" fill="#6e6e80" font-size="11">Figma MCP</text>
  <circle cx="649" cy="319" r="2.5" fill="#10a37f"/>
  <text x="659" y="322" fill="#6e6e80" font-size="11">Figma Link</text>
  <rect x="905" y="268" width="200" height="112" rx="6" fill="#fafafa" stroke="#e5e5e5" stroke-width="1"/>
  <text x="917" y="286" fill="#0d0d0d" font-size="11" font-weight="600">工具 &amp; 资源</text>
  <circle cx="919" cy="301" r="2.5" fill="#10a37f"/>
  <text x="929" y="304" fill="#6e6e80" font-size="11">OpenSpec</text>
  <circle cx="919" cy="319" r="2.5" fill="#10a37f"/>
  <text x="929" y="322" fill="#6e6e80" font-size="11">Cursor</text>
  <circle cx="919" cy="337" r="2.5" fill="#10a37f"/>
  <text x="929" y="340" fill="#6e6e80" font-size="11">Vibe Coding</text>
  <circle cx="919" cy="355" r="2.5" fill="#10a37f"/>
  <text x="929" y="358" fill="#6e6e80" font-size="11">repo system (curl)</text>
  <line x1="195" y1="241" x2="195" y2="268" stroke="#e5e5e5" stroke-width="1" stroke-dasharray="4,3"/>
  <line x1="465" y1="241" x2="465" y2="268" stroke="#e5e5e5" stroke-width="1" stroke-dasharray="4,3"/>
  <line x1="735" y1="241" x2="735" y2="268" stroke="#e5e5e5" stroke-width="1" stroke-dasharray="4,3"/>
  <line x1="1005" y1="241" x2="1005" y2="268" stroke="#e5e5e5" stroke-width="1" stroke-dasharray="4,3"/>
  <circle cx="195" cy="450" r="10" fill="none" stroke="#c4c4c4" stroke-width="1.5"/>
  <line x1="195" y1="460" x2="195" y2="480" stroke="#c4c4c4" stroke-width="1.5"/>
  <line x1="183" y1="468" x2="207" y2="468" stroke="#c4c4c4" stroke-width="1.5"/>
  <line x1="195" y1="480" x2="185" y2="494" stroke="#c4c4c4" stroke-width="1.5"/>
  <line x1="195" y1="480" x2="205" y2="494" stroke="#c4c4c4" stroke-width="1.5"/>
  <text x="195" y="510" text-anchor="middle" fill="#6e6e80" font-size="12">R2</text>
  <circle cx="465" cy="450" r="10" fill="none" stroke="#c4c4c4" stroke-width="1.5"/>
  <line x1="465" y1="460" x2="465" y2="480" stroke="#c4c4c4" stroke-width="1.5"/>
  <line x1="453" y1="468" x2="477" y2="468" stroke="#c4c4c4" stroke-width="1.5"/>
  <line x1="465" y1="480" x2="455" y2="494" stroke="#c4c4c4" stroke-width="1.5"/>
  <line x1="465" y1="480" x2="475" y2="494" stroke="#c4c4c4" stroke-width="1.5"/>
  <text x="465" y="510" text-anchor="middle" fill="#6e6e80" font-size="12">R2</text>
  <circle cx="735" cy="450" r="10" fill="none" stroke="#c4c4c4" stroke-width="1.5"/>
  <line x1="735" y1="460" x2="735" y2="480" stroke="#c4c4c4" stroke-width="1.5"/>
  <line x1="723" y1="468" x2="747" y2="468" stroke="#c4c4c4" stroke-width="1.5"/>
  <line x1="735" y1="480" x2="725" y2="494" stroke="#c4c4c4" stroke-width="1.5"/>
  <line x1="735" y1="480" x2="745" y2="494" stroke="#c4c4c4" stroke-width="1.5"/>
  <text x="735" y="510" text-anchor="middle" fill="#6e6e80" font-size="12">R2</text>
  <circle cx="1005" cy="450" r="10" fill="none" stroke="#c4c4c4" stroke-width="1.5"/>
  <line x1="1005" y1="460" x2="1005" y2="480" stroke="#c4c4c4" stroke-width="1.5"/>
  <line x1="993" y1="468" x2="1017" y2="468" stroke="#c4c4c4" stroke-width="1.5"/>
  <line x1="1005" y1="480" x2="995" y2="494" stroke="#c4c4c4" stroke-width="1.5"/>
  <line x1="1005" y1="480" x2="1015" y2="494" stroke="#c4c4c4" stroke-width="1.5"/>
  <text x="1005" y="510" text-anchor="middle" fill="#6e6e80" font-size="12">R2</text>
  <line x1="90" y1="540" x2="1110" y2="540" stroke="#e5e5e5" stroke-width="1"/>
  <rect x="90" y="560" width="1020" height="70" rx="8" fill="none" stroke="#e5e5e5" stroke-width="1" stroke-dasharray="4,3"/>
  <text x="600" y="590" text-anchor="middle" fill="#0d0d0d" font-size="17" font-weight="600">Harness Engineering</text>
  <text x="600" y="612" text-anchor="middle" fill="#6e6e80" font-size="13">怎么做到的？</text>
</svg>